<svg xmlns="http://www.w3.org/2000/svg" xmlns:xlink="http://www.w3.org/1999/xlink" width="1280" zoomAndPan="magnify" viewBox="0 0 960 599.999999" height="800" preserveAspectRatio="xMidYMid meet" version="1.0"><defs><filter x="0%" y="0%" width="100%" height="100%" id="e7dfe3e33e"><feColorMatrix values="0 0 0 0 1 0 0 0 0 1 0 0 0 0 1 0 0 0 1 0" color-interpolation-filters="sRGB"/></filter><clipPath id="f790afbd2f"><path d="M 691 327 L 705.378906 327 L 705.378906 341.554688 L 691 341.554688 Z M 691 327 " clip-rule="nonzero"/></clipPath><clipPath id="9a84f802a6"><path d="M 679.128906 315.304688 L 694 315.304688 L 694 330 L 679.128906 330 Z M 679.128906 315.304688 " clip-rule="nonzero"/></clipPath><mask id="2577708e3f"><g filter="url(#e7dfe3e33e)"><rect x="-96" width="1152" fill="#000000" y="-60" height="719.999999" fill-opacity="0.12"/></g></mask><clipPath id="99e1f7a9d9"><path d="M 0 0 L 618.667969 0 L 618.667969 600 L 0 600 Z M 0 0 " clip-rule="nonzero"/></clipPath><clipPath id="514631a545"><path d="M 65 0 L 618.667969 0 L 618.667969 40 L 65 40 Z M 65 0 " clip-rule="nonzero"/></clipPath><clipPath id="bc72cec0a4"><rect x="0" width="620" y="0" height="600"/></clipPath><clipPath id="716d51318c"><path d="M 913.03125 14.601562 L 941 14.601562 L 941 55 L 913.03125 55 Z M 913.03125 14.601562 " clip-rule="nonzero"/></clipPath></defs><rect x="-96" width="1152" fill="#ffffff" y="-60" height="719.999999" fill-opacity="1"/><rect x="-96" width="1152" fill="#f2f2f2" y="-60" height="719.999999" fill-opacity="1"/><path stroke-linecap="butt" transform="matrix(-0.75, 0, 0, -0.75, 989.199678, 328.608757)" fill="none" stroke-linejoin="miter" d="M 0.000612699 0.999176 L 302.000626 0.999176 " stroke="#587289" stroke-width="2" stroke-opacity="1" stroke-miterlimit="4"/><g clip-path="url(#f790afbd2f)"><path fill="#587289" d="M 693.144531 329.324219 L 705.695312 329.324219 L 705.695312 327.886719 C 705.539062 327.886719 698.695312 327.886719 694.628906 327.886719 C 693 327.886719 691.679688 329.207031 691.679688 330.839844 L 691.679688 341.902344 L 693.144531 341.902344 Z M 693.144531 329.324219 " fill-opacity="1" fill-rule="nonzero"/></g><g clip-path="url(#9a84f802a6)"><path fill="#587289" d="M 691.679688 327.886719 L 679.128906 327.886719 L 679.128906 329.324219 C 679.285156 329.324219 686.128906 329.324219 690.195312 329.324219 C 691.824219 329.324219 693.144531 328.003906 693.144531 326.371094 L 693.144531 315.308594 L 691.679688 315.308594 Z M 691.679688 327.886719 " fill-opacity="1" fill-rule="nonzero"/></g><g mask="url(#2577708e3f)"><g transform="matrix(1, 0, 0, 1, 0, -0.000000000000034788)"><g clip-path="url(#bc72cec0a4)"><g clip-path="url(#99e1f7a9d9)"><path fill="#494949" d="M 618.679688 615.117188 L 593.757812 643.878906 L 39.488281 121.433594 L 39.488281 700.832031 C 39.488281 700.832031 0.0273438 700.832031 0.0273438 700.832031 L 0.0078125 0.429688 L 39.488281 0.40625 C 39.488281 44.296875 57.59375 86.246094 89.535156 116.351562 Z M 618.679688 615.117188 " fill-opacity="1" fill-rule="nonzero"/></g><g clip-path="url(#514631a545)"><path fill="#494949" d="M 131.707031 39.792969 C 131.707031 39.792969 86.390625 41.316406 65.667969 0.199219 L 618.679688 0.199219 L 618.679688 39.78125 C 526.210938 39.785156 400.609375 39.792969 131.707031 39.792969 Z M 131.707031 39.792969 " fill-opacity="1" fill-rule="nonzero"/></g></g></g></g><g clip-path="url(#716d51318c)"><path fill="#587289" d="M 937.964844 39.984375 C 937.351562 38.832031 936.769531 37.742188 936.4375 37.125 C 937.671875 36.09375 938.417969 34.199219 938.457031 31.582031 C 938.492188 29.476562 938.0625 27.636719 938.0625 27.636719 C 938.0625 27.636719 937.90625 27.597656 937.714844 27.578125 C 937.570312 27.078125 937.34375 26.390625 937.039062 25.539062 C 937.105469 25.511719 937.148438 25.507812 937.148438 25.507812 L 936.453125 23.601562 C 936.453125 23.601562 936.386719 23.558594 936.285156 23.523438 C 934.011719 17.824219 931.671875 15.945312 931.109375 15.316406 C 930.519531 14.65625 929.96875 14.726562 929.308594 14.65625 C 928.824219 14.609375 927.429688 14.875 926.726562 15.023438 C 926.59375 14.933594 926.488281 14.902344 926.488281 14.902344 C 926.488281 14.902344 925.4375 15.085938 924.503906 15.664062 C 923.984375 15.984375 924.207031 16.933594 924.34375 17.183594 C 924.480469 17.4375 924.703125 17.738281 925.1875 17.621094 C 925.667969 17.507812 926.9375 16.710938 927.144531 16.433594 C 927.1875 16.21875 927.195312 16.035156 927.183594 15.875 C 928.003906 15.703125 929.753906 15.363281 930.121094 15.519531 C 930.523438 15.691406 932.890625 17.339844 935.441406 24.015625 C 935.414062 24.125 935.394531 24.257812 935.382812 24.410156 L 935.335938 24.429688 C 935.335938 24.429688 935.484375 24.785156 935.628906 25.34375 C 936.292969 27.933594 935.910156 30.679688 932.839844 31.699219 C 930.132812 32.605469 927.003906 31.089844 924.863281 29.527344 C 924.359375 29.15625 924.0625 28.898438 924.0625 28.898438 L 924.035156 28.925781 L 923.972656 28.855469 C 923.972656 28.855469 923.832031 28.726562 923.648438 28.683594 C 919.785156 24.085938 918.4375 21.152344 919.015625 20.007812 C 919.648438 18.761719 920.902344 18.429688 921.117188 18.363281 C 921.257812 18.605469 921.445312 18.828125 921.632812 18.800781 C 922.9375 18.613281 923.753906 18.164062 923.753906 18.164062 C 923.753906 18.164062 923.960938 18.1875 923.824219 17.207031 C 923.6875 16.226562 922.957031 16.183594 922.957031 16.183594 C 922.140625 16.414062 921.359375 16.839844 921.023438 17.046875 C 920.816406 17.171875 920.785156 17.367188 920.8125 17.5625 C 920.789062 17.554688 920.769531 17.554688 920.769531 17.554688 C 920.921875 17.554688 918.878906 18.1875 918.199219 20.007812 C 917.648438 21.484375 919.9375 26.351562 926.136719 32.957031 C 926.054688 33.128906 926.007812 33.269531 926.007812 33.269531 C 926.941406 34.355469 928.070312 35.367188 929.222656 36.207031 C 931.414062 37.800781 933.414062 38.3125 934.988281 37.882812 C 935.8125 39.414062 938.265625 43.992188 938.617188 44.886719 C 939.015625 45.910156 939.714844 48.332031 938.132812 51.175781 C 937.359375 52.570312 934.757812 53.46875 932.6875 52.535156 C 931.5 52 930.164062 50.703125 929.15625 49.859375 C 922.25 44.039062 920.507812 50.398438 917.425781 48.558594 C 915.640625 47.492188 914.859375 45.019531 914.859375 43.292969 C 914.859375 42.113281 915.96875 38.710938 915.996094 38.636719 C 915.996094 38.636719 915.886719 38.53125 915.742188 38.417969 L 915.8125 38.230469 C 915.945312 38.246094 916.078125 38.257812 916.21875 38.257812 C 917.976562 38.257812 919.40625 36.832031 919.40625 35.070312 C 919.40625 33.308594 917.976562 31.882812 916.21875 31.882812 C 914.457031 31.882812 913.03125 33.308594 913.03125 35.070312 C 913.03125 36.363281 913.800781 37.476562 914.910156 37.976562 L 914.863281 38.105469 C 914.636719 38.101562 914.441406 38.125 914.441406 38.125 C 914.015625 39.425781 913.226562 42.007812 913.226562 43.292969 C 913.226562 45.296875 914.097656 48.472656 916.585938 49.960938 C 918.859375 51.316406 920.734375 49.816406 922.800781 49.152344 C 926.285156 48.035156 929.054688 52.6875 932.015625 54.023438 C 934.722656 55.246094 938.308594 54.230469 939.5625 51.972656 C 942.1875 47.246094 940.089844 44.003906 937.964844 39.984375 Z M 937.964844 39.984375 " fill-opacity="1" fill-rule="nonzero"/></g></svg>